<svg xmlns="http://www.w3.org/2000/svg" width="256" height="256" viewBox="0 0 256 256">

<linearGradient id="Gradient1" x1="0" y2="1">
      <stop offset="0%" stop-color="#8022b7" />
	<stop offset="100%" stop-color="#e83535" />
</linearGradient>

<rect width="256" height="256" rx="15" fill="url(#Gradient1)" />

<g fill="white">
      <g transform="translate(44, -20) scale(1.2)">
            <path d="M30 98V30h20l20 25 20-25h20v68H90V59L70 84 50 59v39zm125 "/>
      </g>

      <g transform="translate(81, 99.5) scale(0.196 0.15)">
            <polygon points="300,298.7 300,80 180,80 180,298.7 70.3,298.7 241,512 411.7,298.7 "/>
      </g>

      <g transform="translate(7.5, 145) scale(0.85)">
		<path d="M110.132,64.379c-0.905-2.186-2.111-4.146-3.769-5.804c-1.658-1.658-3.694-3.015-6.031-3.92
			c-2.412-0.98-5.126-1.432-8.141-1.432H69.651v58.195h11.383V89.481h11.157c3.015,0,5.729-0.452,8.141-1.432
			c2.337-0.905,4.372-2.261,6.031-3.92c1.659-1.658,2.865-3.543,3.769-5.804c0.829-2.186,1.282-4.523,1.282-6.935
			C111.413,68.902,110.961,66.565,110.132,64.379z M97.844,77.118c-1.508,1.432-3.618,2.186-6.181,2.186H81.034V63.323h10.629
			c2.563,0,4.674,0.754,6.181,2.261c1.432,1.432,2.186,3.392,2.186,5.804C100.031,73.726,99.277,75.686,97.844,77.118z"/>
		<path d="M164.558,75.761c-0.075-2.035-0.151-3.844-0.377-5.503c-0.226-1.659-0.603-3.166-1.131-4.598
			c-0.528-1.357-1.206-2.714-2.111-3.92c-2.035-2.94-4.523-5.126-7.312-6.483c-2.865-1.357-6.257-2.035-10.252-2.035h-20.956
			v58.195h20.956c3.995,0,7.387-0.678,10.252-2.035c2.789-1.357,5.277-3.543,7.312-6.483c0.905-1.206,1.583-2.563,2.111-3.92
			c0.528-1.432,0.905-2.94,1.131-4.598c0.226-1.658,0.301-3.468,0.377-5.503c0.075-1.96,0.075-4.146,0.075-6.558
			C164.633,79.908,164.633,77.721,164.558,75.761z M153.175,88.2c0,1.734-0.151,3.091-0.302,4.297
			c-0.151,1.131-0.377,2.186-0.678,2.94c-0.301,0.829-0.754,1.583-1.281,2.261c-1.885,2.412-4.749,3.543-8.518,3.543h-8.669V63.323
			h8.669c3.769,0,6.634,1.206,8.518,3.618c0.528,0.678,0.98,1.357,1.281,2.186s0.528,1.809,0.678,3.015
			c0.151,1.131,0.302,2.563,0.302,4.221c0.075,1.659,0.075,3.694,0.075,5.955C153.251,84.581,153.251,86.541,153.175,88.2z"/>
		<path d="M213.18,63.323V53.222h-38.37v58.195h11.383V87.823h22.992V77.646h-22.992V63.323H213.18z"/>
</g>
</g>
</svg>
